<?xml version="1.0" encoding="UTF-8" standalone="no"?>
<svg
   xmlns:dc="http://purl.org/dc/elements/1.1/"
   xmlns:cc="http://creativecommons.org/ns#"
   xmlns:rdf="http://www.w3.org/1999/02/22-rdf-syntax-ns#"
   xmlns:svg="http://www.w3.org/2000/svg"
   xmlns="http://www.w3.org/2000/svg"
   viewBox="0 0 336 192"
   height="192"
   width="336"
   xml:space="preserve"
   id="svg2"
   version="1.1"><metadata
     id="metadata8"><rdf:RDF><cc:Work
         rdf:about=""><dc:format>image/svg+xml</dc:format><dc:type
           rdf:resource="http://purl.org/dc/dcmitype/StillImage" /></cc:Work></rdf:RDF></metadata><defs
     id="defs6"><clipPath
       id="clipPath18"
       clipPathUnits="userSpaceOnUse"><path
         id="path16"
         d="M 0,144 H 252 V 0 H 0 Z" /></clipPath></defs><g
     transform="matrix(1.3333333,0,0,-1.3333333,0,192)"
     id="g10"><g
       id="g12"><g
         clip-path="url(#clipPath18)"
         id="g14"><g
           transform="translate(82.1976,91.8737)"
           id="g20"><path
             id="path22"
             style="fill:#321973;fill-opacity:1;fill-rule:evenodd;stroke:none"
             d="m 0,0 h -27.198 v 2.045 c 0,1.005 0.421,1.92 1.1,2.583 0.679,0.663 1.615,1.075 2.643,1.075 h 19.712 c 1.03,0 1.966,-0.411 2.645,-1.073 L -1.1,4.628 C -0.422,3.965 0,3.05 0,2.045 Z M 0,-34.968 H -27.198 V -2.315 H 0 Z m 0,-7.299 c 0,-1.008 -0.42,-1.923 -1.096,-2.583 L -1.1,-44.855 c -0.677,-0.66 -1.612,-1.071 -2.643,-1.071 h -19.712 c -1.028,0 -1.964,0.412 -2.643,1.076 -0.679,0.663 -1.1,1.578 -1.1,2.583 v 4.984 H 0 Z M 0.574,6.264 H 0.57 c -1.108,1.082 -2.635,1.754 -4.313,1.754 h -19.712 c -1.682,0 -3.21,-0.672 -4.317,-1.754 -1.107,-1.082 -1.795,-2.576 -1.795,-4.219 v -3.202 -34.969 -6.141 c 0,-1.644 0.688,-3.138 1.795,-4.22 1.107,-1.082 2.635,-1.754 4.317,-1.754 h 19.712 c 1.676,0 3.203,0.672 4.312,1.754 l 0.005,0.005 c 1.107,1.084 1.794,2.576 1.794,4.215 v 6.141 34.969 3.202 c 0,1.643 -0.687,3.137 -1.794,4.219" /></g><g
           transform="translate(69.4458,49.4246)"
           id="g24"><path
             id="path26"
             style="fill:#321973;fill-opacity:1;fill-rule:evenodd;stroke:none"
             d="m 0,0 c -0.216,-0.211 -0.516,-0.343 -0.847,-0.343 -0.333,0 -0.634,0.131 -0.85,0.341 L -1.695,0 c -0.216,0.211 -0.351,0.505 -0.351,0.828 0,0.326 0.134,0.619 0.349,0.831 0.216,0.21 0.517,0.34 0.85,0.34 0.331,0 0.631,-0.131 0.847,-0.342 L 0.002,1.659 C 0.217,1.447 0.351,1.154 0.351,0.828 0.351,0.505 0.216,0.211 0,0 m 1.674,3.289 v 0.004 c -0.645,0.631 -1.537,1.021 -2.521,1.021 -0.982,0 -1.872,-0.39 -2.518,-1.021 L -3.369,3.289 C -4.014,2.658 -4.414,1.787 -4.414,0.828 c 0,-0.962 0.4,-1.834 1.045,-2.464 h 0.004 c 0.646,-0.631 1.536,-1.022 2.518,-1.022 0.984,0 1.876,0.391 2.521,1.022 0.645,0.63 1.045,1.502 1.045,2.464 0,0.959 -0.4,1.83 -1.045,2.461" /></g><g
           transform="translate(39.9483,83.0491)"
           id="g28"><path
             id="path30"
             style="fill:#321973;fill-opacity:1;fill-rule:evenodd;stroke:none"
             d="m 0,0 c 0.462,0.452 1.212,0.452 1.674,0 0.462,-0.452 0.462,-1.185 0,-1.636 -2.726,-2.665 -4.089,-6.158 -4.089,-9.651 0,-3.492 1.363,-6.986 4.089,-9.65 0.462,-0.452 0.462,-1.185 0,-1.636 -0.462,-0.452 -1.212,-0.452 -1.674,0 -3.189,3.117 -4.783,7.202 -4.783,11.286 0,4.085 1.594,8.17 4.783,11.287" /></g><g
           transform="translate(45.177,79.9697)"
           id="g32"><path
             id="path34"
             style="fill:#321973;fill-opacity:1;fill-rule:evenodd;stroke:none"
             d="m 0,0 c 0.462,0.452 1.212,0.452 1.674,0 0.463,-0.452 0.463,-1.184 0,-1.636 -1.856,-1.815 -2.784,-4.193 -2.784,-6.571 0,-2.379 0.928,-4.757 2.784,-6.571 0.463,-0.452 0.463,-1.185 0,-1.637 -0.462,-0.452 -1.212,-0.452 -1.674,0 -2.319,2.267 -3.478,5.238 -3.478,8.208 0,2.97 1.159,5.94 3.478,8.207" /></g><g
           transform="translate(95.5741,81.4127)"
           id="g36"><path
             id="path38"
             style="fill:#321973;fill-opacity:1;fill-rule:evenodd;stroke:none"
             d="m 0,0 c -0.462,0.452 -0.462,1.185 0,1.636 0.462,0.452 1.212,0.452 1.674,0 3.189,-3.117 4.784,-7.202 4.784,-11.286 0,-4.085 -1.595,-8.17 -4.784,-11.287 -0.462,-0.452 -1.212,-0.452 -1.674,0 -0.462,0.452 -0.462,1.185 0,1.636 2.726,2.665 4.089,6.158 4.089,9.651 C 4.089,-6.158 2.726,-2.665 0,0" /></g><g
           transform="translate(90.3455,78.3334)"
           id="g40"><path
             id="path42"
             style="fill:#321973;fill-opacity:1;fill-rule:evenodd;stroke:none"
             d="m 0,0 c -0.462,0.452 -0.462,1.185 0,1.637 0.462,0.451 1.212,0.451 1.674,0 2.319,-2.267 3.479,-5.238 3.479,-8.208 0,-2.97 -1.16,-5.941 -3.479,-8.207 C 1.212,-15.23 0.462,-15.23 0,-14.779 c -0.462,0.452 -0.462,1.185 0,1.637 1.856,1.814 2.784,4.193 2.784,6.571 C 2.784,-4.193 1.856,-1.814 0,0" /></g><g
           transform="translate(204.3694,56.8859)"
           id="g44"><path
             id="path46"
             style="fill:#321973;fill-opacity:1;fill-rule:evenodd;stroke:none"
             d="M 0,0 -13.386,13.386 0,29.123 Z m -43.513,-1.578 12.992,12.992 3.709,-4.36 c 0.174,-0.205 0.364,-0.394 0.564,-0.565 0.978,-0.831 2.223,-1.247 3.456,-1.247 1.232,0 2.475,0.415 3.452,1.246 l 0.003,-0.003 c 0.19,0.161 0.379,0.351 0.564,0.569 l 3.709,4.36 12.992,-12.992 z M -45.585,0 V 29.123 L -32.199,13.386 Z M -1.493,31.331 -20.729,8.717 C -20.802,8.631 -20.894,8.542 -21.001,8.451 V 8.446 c -0.488,-0.415 -1.134,-0.623 -1.791,-0.623 -0.657,0 -1.304,0.208 -1.792,0.623 -0.097,0.082 -0.188,0.173 -0.272,0.271 l -19.236,22.614 z m 3.067,1.563 -0.008,0.008 c -0.625,0.623 -1.484,1.01 -2.426,1.01 h -43.864 c -0.941,0 -1.798,-0.385 -2.423,-1.007 l -0.009,-0.008 c -0.623,-0.625 -1.01,-1.484 -1.01,-2.426 V -0.718 c 0,-0.941 0.386,-1.799 1.007,-2.424 l 0.008,-0.008 c 0.626,-0.623 1.485,-1.009 2.427,-1.009 H -0.86 c 0.94,0 1.798,0.385 2.423,1.007 l 0.008,0.008 c 0.623,0.625 1.01,1.484 1.01,2.426 v 31.189 c 0,0.94 -0.385,1.798 -1.007,2.423" /></g></g></g></g></svg>